{"title":"The Last Templar 2009 Miniserie DVD9rip 2 Parts English Klam","uid":6021890,"size":3132868269,"categoryP":"video","categoryS":"movies","magnet":"?xt=urn:btih:bb829e45b76cdfe979fe927492453b4af76035e5&amp;dn=The+Last+Templar+2009+Miniserie+DVD9rip+2+Parts+English+Klam&amp;tr=udp%3A%2F%2Ftracker.openbittorrent.com%3A80&amp;tr=udp%3A%2F%2Fopen.demonii.com%3A1337&amp;tr=udp%3A%2F%2Ftracker.coppersurfer.tk%3A6969&amp;tr=udp%3A%2F%2Fexodus.desync.com%3A6969","seeders":1,"leechers":1,"uploader":"Klambake","files":-1,"time":1291819365,"description":"With: Mira Sorvino, Victor Garber and Scott Foley\n\nDuring a gala museum event featuring precious Vatican artifacts, a group of men posing as Templar knights stage a daring robbery. Their primary interest is in obtaining a mechanical decoding device that can supposedly decipher the location of the Templar treasure. Archaeologist Tess Chaykin reluctantly works with FBI Agent Sean Daley to uncover the mastermind behind the plot and possibly locate the treasure.\n\nGeneral:\n\nComplete name                    : The Last\\Templar Part One.avi\nFormat                           : AVI\nFormat/Info                      : Audio Video Interleave\nFile size                        : 1.46 GiB\nDuration                         : 1h 22mn\nOverall bit rate                 : 2 527 Kbps\n\nVideo:\n\nFormat                           : MPEG-4 Visual\nFormat profile                   : Simple@L3\nFormat settings, BVOP            : No\nFormat settings, QPel            : No\nFormat settings, GMC             : No warppoints\nFormat settings, Matrix          : Default (H.263)\nCodec ID                         : XVID\nCodec ID/Hint                    : XviD\nDuration                         : 1h 22mn\nBit rate                         : 2 324 Kbps\nWidth                            : 720 pixels\nHeight                           : 576 pixels\nDisplay aspect ratio             : 5:4\nFrame rate                       : 25.000 fps\nStandard                         : PAL\nColor space                      : YUV\nChroma subsampling               : 4:2:0\nBit depth                        : 8 bits\nScan type                        : Progressive\nBits/(Pixel*Frame)               : 0.224\nStream size                      : 1.34 GiB (92%)\nWriting library                  : XviD 1.1.2 (UTC 2006-11-01)\n\nAudio:\n\nFormat                           : AC-3\nFormat/Info                      : Audio Coding 3\nMode extension                   : CM (complete main)\nCodec ID                         : 2000\nDuration                         : 1h 22mn\nBit rate mode                    : Constant\nBit rate                         : 192 Kbps\nChannel(s)                       : 2 channels\nChannel positions                : Front: L R\nSampling rate                    : 48.0 KHz\nBit depth                        : 16 bits\nStream size                      : 113 MiB (8%)\nAlignment                        : Aligned on interleaves\nInterleave, duration             : 32 ms (0.80 video frame)","torrent":{"xt":"urn:btih:bb829e45b76cdfe979fe927492453b4af76035e5","amp;dn":"The+Last+Templar+2009+Miniserie+DVD9rip+2+Parts+English+Klam","amp;tr":["udp%3A%2F%2Ftracker.openbittorrent.com%3A80","udp%3A%2F%2Fopen.demonii.com%3A1337","udp%3A%2F%2Ftracker.coppersurfer.tk%3A6969","udp%3A%2F%2Fexodus.desync.com%3A6969"],"infoHash":"bb829e45b76cdfe979fe927492453b4af76035e5","infoHashBuffer":{"type":"Buffer","data":[187,130,158,69,183,108,223,233,121,254,146,116,146,69,59,74,247,96,53,229]},"announce":[],"urlList":[]}}